<?xml version="1.0" standalone="no"?>
<!DOCTYPE svg PUBLIC "-//W3C//DTD SVG 20010904//EN"
 "http://www.w3.org/TR/2001/REC-SVG-20010904/DTD/svg10.dtd">
<svg version="1.0" xmlns="http://www.w3.org/2000/svg"
 width="512.000000pt" height="512.000000pt" viewBox="0 0 512.000000 512.000000"
 preserveAspectRatio="xMidYMid meet">
<metadata>
Created by potrace 1.14, written by Peter Selinger 2001-2017
</metadata>
<g transform="translate(0.000000,512.000000) scale(0.100000,-0.100000)"
fill="#000000" stroke="none">
<path d="M2377 5110 c-623 -48 -1183 -305 -1622 -745 -346 -346 -586 -779
-689 -1245 -80 -365 -80 -755 0 -1120 191 -864 847 -1589 1689 -1865 440 -145
915 -169 1365 -69 681 152 1276 585 1640 1194 328 548 435 1226 294 1860 -194
868 -843 1585 -1688 1865 -309 103 -677 149 -989 125z m1291 -944 l37 -34 5
-474 c3 -260 3 -967 0 -1570 l-5 -1098 -33 -32 -32 -33 -1080 0 -1080 0 -32
33 -33 32 -5 1093 c-3 600 -3 1307 0 1569 l5 476 25 27 c14 15 34 31 45 35 11
5 498 9 1083 9 l1062 1 38 -34z"/>
<path d="M1610 4001 c-6 -13 -10 -139 -10 -341 0 -202 4 -328 10 -341 10 -19
32 -19 950 -19 918 0 940 0 950 19 6 13 10 139 10 341 0 202 -4 328 -10 341
-10 19 -32 19 -950 19 -918 0 -940 0 -950 -19z m1140 -66 c0 -3 -70 -129 -156
-280 -136 -240 -159 -275 -180 -275 -13 0 -24 3 -24 6 0 3 70 129 156 280 136
240 159 274 180 274 13 0 24 -2 24 -5z m278 -53 c-18 -32 -89 -158 -158 -280
l-125 -222 -102 0 c-57 0 -103 3 -103 6 0 3 70 129 156 280 l156 274 104 0
105 0 -33 -58z"/>
<path d="M1632 2998 c-8 -8 -12 -56 -12 -148 0 -92 4 -140 12 -148 17 -17 279
-17 296 0 17 17 17 279 0 296 -17 17 -279 17 -296 0z"/>
</g>
</svg>
